<mxfile>
    <diagram id="q9sYgcil1Lgh9VzegS3e" name="第 1 页">
        <mxGraphModel dx="1597" dy="1129" grid="1" gridSize="10" guides="1" tooltips="1" connect="1" arrows="1" fold="1" page="1" pageScale="1" pageWidth="1920" pageHeight="1200" background="#F4F1DE" math="0" shadow="0">
            <root>
                <mxCell id="0"/>
                <mxCell id="1" parent="0"/>
                <mxCell id="8" value="&lt;h1 style=&quot;font-size: 25px;&quot;&gt;&lt;font face=&quot;Comic Sans MS&quot; style=&quot;font-size: 25px;&quot;&gt;AbstractEventData&lt;/font&gt;&lt;/h1&gt;" style="rounded=1;html=1;sketch=1;strokeColor=#E07A5F;fontColor=#393C56;fillStyle=solid;fillColor=#FFFFCC;whiteSpace=wrap;fontSize=25;" vertex="1" parent="1">
                    <mxGeometry x="50" y="110" width="260" height="60" as="geometry"/>
                </mxCell>
                <mxCell id="11" value="" style="shape=flexArrow;endArrow=classic;html=1;strokeColor=#E07A5F;fillColor=#F2CC8F;fontSize=25;fontColor=#393C56;" edge="1" parent="1">
                    <mxGeometry width="50" height="50" relative="1" as="geometry">
                        <mxPoint x="320" y="140" as="sourcePoint"/>
                        <mxPoint x="440" y="140" as="targetPoint"/>
                    </mxGeometry>
                </mxCell>
                <mxCell id="12" value="" style="endArrow=none;dashed=1;html=1;dashPattern=1 3;strokeWidth=2;fillColor=#F2CC8F;fontSize=25;fontColor=#393C56;" edge="1" parent="1" target="13">
                    <mxGeometry width="50" height="50" relative="1" as="geometry">
                        <mxPoint x="110" y="340" as="sourcePoint"/>
                        <mxPoint x="110" y="180" as="targetPoint"/>
                    </mxGeometry>
                </mxCell>
                <mxCell id="13" value="" style="whiteSpace=wrap;html=1;aspect=fixed;" vertex="1" parent="1">
                    <mxGeometry x="90" y="220" width="180" height="180" as="geometry"/>
                </mxCell>
            </root>
        </mxGraphModel>
    </diagram>
</mxfile>